<svg id="visual" viewBox="0 0 900 360" width="900" height="360" xmlns="http://www.w3.org/2000/svg" xmlns:xlink="http://www.w3.org/1999/xlink" version="1.1"><path d="M0 131L25 135.8C50 140.7 100 150.3 150 160.2C200 170 250 180 300 178.8C350 177.7 400 165.3 450 161C500 156.7 550 160.3 600 168.8C650 177.3 700 190.7 750 195.7C800 200.7 850 197.3 875 195.7L900 194L900 0L875 0C850 0 800 0 750 0C700 0 650 0 600 0C550 0 500 0 450 0C400 0 350 0 300 0C250 0 200 0 150 0C100 0 50 0 25 0L0 0Z" fill="#b7fbfb"></path><path d="M0 165L25 164.8C50 164.7 100 164.3 150 159.8C200 155.3 250 146.7 300 146.7C350 146.7 400 155.3 450 153.3C500 151.3 550 138.7 600 129.8C650 121 700 116 750 118.2C800 120.3 850 129.7 875 134.3L900 139L900 0L875 0C850 0 800 0 750 0C700 0 650 0 600 0C550 0 500 0 450 0C400 0 350 0 300 0C250 0 200 0 150 0C100 0 50 0 25 0L0 0Z" fill="#8de4e4"></path><path d="M0 60L25 62.7C50 65.3 100 70.7 150 72.5C200 74.3 250 72.7 300 72C350 71.3 400 71.7 450 72.3C500 73 550 74 600 74.5C650 75 700 75 750 80.5C800 86 850 97 875 102.5L900 108L900 0L875 0C850 0 800 0 750 0C700 0 650 0 600 0C550 0 500 0 450 0C400 0 350 0 300 0C250 0 200 0 150 0C100 0 50 0 25 0L0 0Z" fill="#5fcece"></path><path d="M0 31L25 37.5C50 44 100 57 150 63.3C200 69.7 250 69.3 300 64.3C350 59.3 400 49.7 450 45.7C500 41.7 550 43.3 600 47.2C650 51 700 57 750 56.2C800 55.3 850 47.7 875 43.8L900 40L900 0L875 0C850 0 800 0 750 0C700 0 650 0 600 0C550 0 500 0 450 0C400 0 350 0 300 0C250 0 200 0 150 0C100 0 50 0 25 0L0 0Z" fill="#15b7b7"></path></svg>