<svg id="visual" viewBox="0 0 900 360" width="900" height="360" xmlns="http://www.w3.org/2000/svg" xmlns:xlink="http://www.w3.org/1999/xlink" version="1.1"><path d="M0 227L25 222.2C50 217.3 100 207.7 150 197.8C200 188 250 178 300 179.2C350 180.3 400 192.7 450 197C500 201.3 550 197.7 600 189.2C650 180.7 700 167.3 750 162.3C800 157.3 850 160.7 875 162.3L900 164L900 361L875 361C850 361 800 361 750 361C700 361 650 361 600 361C550 361 500 361 450 361C400 361 350 361 300 361C250 361 200 361 150 361C100 361 50 361 25 361L0 361Z" fill="#b7fbfb"></path><path d="M0 193L25 193.2C50 193.3 100 193.7 150 198.2C200 202.7 250 211.3 300 211.3C350 211.3 400 202.7 450 204.7C500 206.7 550 219.3 600 228.2C650 237 700 242 750 239.8C800 237.7 850 228.3 875 223.7L900 219L900 361L875 361C850 361 800 361 750 361C700 361 650 361 600 361C550 361 500 361 450 361C400 361 350 361 300 361C250 361 200 361 150 361C100 361 50 361 25 361L0 361Z" fill="#8de4e4"></path><path d="M0 298L25 295.3C50 292.7 100 287.3 150 285.5C200 283.7 250 285.3 300 286C350 286.7 400 286.3 450 285.7C500 285 550 284 600 283.5C650 283 700 283 750 277.5C800 272 850 261 875 255.5L900 250L900 361L875 361C850 361 800 361 750 361C700 361 650 361 600 361C550 361 500 361 450 361C400 361 350 361 300 361C250 361 200 361 150 361C100 361 50 361 25 361L0 361Z" fill="#5fcece"></path><path d="M0 327L25 320.5C50 314 100 301 150 294.7C200 288.3 250 288.7 300 293.7C350 298.7 400 308.3 450 312.3C500 316.3 550 314.7 600 310.8C650 307 700 301 750 301.8C800 302.7 850 310.3 875 314.2L900 318L900 361L875 361C850 361 800 361 750 361C700 361 650 361 600 361C550 361 500 361 450 361C400 361 350 361 300 361C250 361 200 361 150 361C100 361 50 361 25 361L0 361Z" fill="#15b7b7"></path></svg>